# xmcd
#
# Track frame offsets: 
#        150
#        19780
#        37082
#        53001
#        69042
#        83948
#        107353
#        130441
#        150899
#        169162
#        188321
#        210001
#        228201
#        262463
#
# Disc length: 3514 seconds
#
# Revision: 1
# Processed by: cddbd v1.5.2PL0 Copyright (c) Steve Scherf et al.
# Submitted via: ExactAudioCopyFreeDBPlugin 1.0
#
DISCID=a50db80e
DTITLE=Various Artist - The Rough Guide to Blues Revival
DYEAR=2009
DGENRE=Blues
TTITLE0=Robben Ford - How Deep In The Blues (Do You Want To Go)
TTITLE1=Irma Thomas - Another Man Done Gone
TTITLE2=Eugene Hideaway Bridges - Ain't Got Time
TTITLE3=The Blind Boys Of Alabama - You Got To Move
TTITLE4=Shemekia Copeland - Something Heavy
TTITLE5=Eric Bibb - Needed Time
TTITLE6=Savoy (feat. Kim Simmonds) - Monday Morning Blues
TTITLE7=Doyle Bramhall - Lost In The Congo
TTITLE8=Deborah Coleman - Dream
TTITLE9=CC Adcock - Stealin All Day
TTITLE10=Kelly Jo Phelps - Big Shaky
TTITLE11=JJ Grey and Moffro - Country Ghetto
TTITLE12=Samba Touré - Anbafo
TTITLE13=Data
EXTD=
EXTT0=
EXTT1=
EXTT2=
EXTT3=
EXTT4=
EXTT5=
EXTT6=
EXTT7=
EXTT8=
EXTT9=
EXTT10=
EXTT11=
EXTT12=
EXTT13=
PLAYORDER=
